Coordinates
version=1
nRows=15
nColumns=42
inDegrees=yes

Units are S.I. units (second, meters, Newtons, ...)
If the header above contains a line with 'inDegrees', this indicates whether rotational values are in degrees (yes) or radians (no).

endheader
time	pelvis_tilt	pelvis_list	pelvis_rotation	pelvis_tx	pelvis_ty	pelvis_tz	hip_flexion_r	hip_adduction_r	hip_rotation_r	knee_angle_r	knee_angle_r_beta	ankle_angle_r	subtalar_angle_r	mtp_angle_r	hip_flexion_l	hip_adduction_l	hip_rotation_l	knee_angle_l	knee_angle_l_beta	ankle_angle_l	subtalar_angle_l	mtp_angle_l	lumbar_extension	lumbar_bending	lumbar_rotation	sh_tx_r	sh_ty_r	sh_tz_r	sh_plane_elev_r	sh_elev_r	sh_axial_rot_r	elbow_flex_r	pro_sup_r	sh_tx_l	sh_ty_l	sh_tz_l	sh_plane_elev_l	sh_elev_l	sh_axial_rot_l	elbow_flex_l	pro_sup_l
      2.59322030	     -5.46455993	     -1.57608406	      1.48927292	      0.23296230	      0.94788612	     -0.06408456	      3.10804302	     -3.77526109	    -12.29680871	      2.14803003	      0.03749020	      3.39524670	     -5.51056925	     -7.49999987	      3.47626616	     -3.46984662	     -7.65282671	      1.93490689	      0.03377050	     10.09219836	      0.64070293	     -7.49999987	      3.37181096	      2.05141435	     -2.19475636	     -0.02582129	     -0.01011702	     -0.00600055	    -23.54557019	      5.91595394	      7.85628869	     32.77476981	    113.71764618	     -0.03036455	      0.01685416	     -0.00447796	     62.76627750	     87.90940903	     12.58021194	      7.31325026	      2.34328827
      2.61016950	     -5.43971236	     -1.61329582	      1.49971370	      0.23712028	      0.94745466	     -0.05966947	      3.00835759	     -3.65350454	    -12.17093910	      2.09558368	      0.03657483	      3.42810498	     -5.44876428	     -7.49999987	      3.38503543	     -3.56825456	     -7.58608589	      1.95004417	      0.03403469	     10.08000330	      0.64262738	     -7.49999987	      3.36819896	      2.02630964	     -2.09702614	     -0.02723903	     -0.01030621	     -0.00612909	    -23.52670450	      5.74877008	      7.92381043	     32.63002560	    113.72147587	     -0.03181069	      0.01684716	     -0.00452260	     62.67666484	     87.86705887	     12.57869698	      7.31326564	      2.33674228
      2.62711860	     -5.26399787	     -1.63892506	      1.46521399	      0.23727353	      0.94803173	     -0.05977688	      2.69530747	     -3.55466472	    -12.25073458	      1.96339170	      0.03426765	      3.54665439	     -5.24280302	     -7.49999987	      3.06315746	     -3.62961326	     -7.60758605	      1.82205080	      0.03180079	     10.05815190	      0.68542625	     -7.49999987	      3.39048794	      2.00233641	     -1.99204244	     -0.02696076	     -0.01010739	     -0.00609629	    -24.00329538	      5.62516037	      8.45444711	     31.88498405	    113.63496441	     -0.03132385	      0.01657078	     -0.00454372	     62.62079716	     87.99245936	     12.28135935	      7.45028370	      2.31533598
      2.64406780	     -5.26816292	     -1.61730627	      1.41496908	      0.23268439	      0.94754316	     -0.06403243	      2.69781803	     -3.60037179	    -12.27217680	      1.93709640	      0.03380871	      3.55515623	     -5.26436917	     -7.49999987	      3.05243744	     -3.59822472	     -7.65828993	      1.81166815	      0.03161957	     10.07927604	      0.63505576	     -7.49999987	      3.48884890	      2.03462540	     -2.03377335	     -0.02566824	     -0.01029659	     -0.00599118	    -24.00838161	      5.72807573	      8.43201972	     31.90949802	    113.63124657	     -0.03017181	      0.01673183	     -0.00449874	     62.66685328	     88.08042320	     12.28280279	      7.42886890	      2.31651143
      2.66101700	     -5.37573417	     -1.60098460	      1.40807555	      0.23283082	      0.94797573	     -0.06398843	      2.81824102	     -3.62951570	    -12.25334757	      1.89644215	      0.03309916	      3.47648406	     -5.32864957	     -7.49999987	      3.16491048	     -3.56187015	     -7.57422133	      1.79215876	      0.03127907	      9.90190165	      0.34889813	     -7.49999987	      3.64206283	      2.05948326	     -2.07396133	     -0.02518319	     -0.01068974	     -0.00599890	    -23.05856936	      5.87869102	      7.72756527	     31.79527197	    113.70948783	     -0.02972503	      0.01656564	     -0.00451968	     62.73634196	     88.24354544	     11.65572075	      7.25955643	      2.33626661
      2.67796610	     -5.38784605	     -1.58188340	      1.41364610	      0.23283453	      0.95062621	     -0.06424312	      2.83366445	     -3.67114199	    -12.28743040	      1.84806959	      0.03225490	      3.35431653	     -5.35439637	     -7.49999987	      3.19160665	     -3.53183902	     -7.55480883	      1.73864491	      0.03034508	      9.79472711	      0.26407989	     -7.49999987	      3.64785030	      2.09300029	     -1.84818215	     -0.02527076	     -0.01091037	     -0.00593514	    -22.89338125	      5.91864397	      7.38382444	     31.62063451	    113.39757079	     -0.02869930	      0.01644974	     -0.00448160	     63.08564100	     88.32349053	     11.21534137	      7.19656280	      2.29468724
      2.69491530	     -5.34059176	     -1.58422665	      1.47106711	      0.22845490	      0.94775834	     -0.05900896	      2.81988798	     -3.59863653	    -12.26693177	      1.73174287	      0.03022461	      3.31737132	     -5.41095996	     -7.49999987	      3.22169367	     -3.56067017	     -7.29833246	      1.73527223	      0.03028621	      9.61565748	     -0.22845560	     -7.49999987	      3.48351218	      2.11492986	     -2.58592229	     -0.02162939	     -0.01076239	     -0.00591443	    -22.60850417	      5.73720566	      8.00631187	     32.20501303	    113.98201234	     -0.02935395	      0.01628967	     -0.00450736	     62.03028773	     88.71805977	     12.48223502	      7.31448654	      2.39810001
      2.71186440	     -5.40212783	     -1.59012568	      1.47537325	      0.22839141	      0.94726482	     -0.05899557	      2.97758616	     -3.51980894	    -12.26301130	      1.73145663	      0.03021962	      3.34906537	     -5.35303699	     -7.49999987	      3.40615650	     -3.62817401	     -7.42513352	      1.80469223	      0.03149782	      9.59720948	     -0.04224369	     -7.49999987	      3.40200526	      1.98102830	     -2.05777909	     -0.02374682	     -0.01083592	     -0.00588573	    -21.20003298	      5.56250989	      6.33193564	     31.88461447	    113.15796403	     -0.02753841	      0.01693222	     -0.00446209	     62.67921697	     89.17533152	     11.01824907	      7.37437018	      2.28598992
      2.72881360	     -5.44056050	     -1.60278612	      1.47939013	      0.22845656	      0.94766892	     -0.05898098	      3.11619703	     -3.45046045	    -12.24509625	      1.77212374	      0.03092939	      3.37405026	     -5.34763906	     -7.49999987	      3.57170735	     -3.69996251	     -7.48078499	      1.87726378	      0.03276443	      9.56542741	      0.08706536	     -7.49999987	      3.40543136	      1.89689249	     -2.34436439	     -0.02281808	     -0.01076568	     -0.00592483	    -20.61284815	      5.45129822	      6.18113882	     31.84034621	    113.76070202	     -0.02794355	      0.01797036	     -0.00442713	     62.56553206	     89.40475778	     10.71364593	      7.55888110	      2.35150025
      2.74576270	     -5.63238348	     -1.65442360	      1.49212052	      0.22779315	      0.94699898	     -0.05922789	      3.70876868	     -3.43394123	    -12.31813373	      2.38619865	      0.04164702	      3.69504916	     -5.40996193	     -7.49999987	      4.21382847	     -3.80807288	     -7.48492878	      2.54298784	      0.04438351	      9.82933441	      0.02305575	     -7.49999987	      3.92401611	      2.14901579	     -2.57777115	     -0.01921357	     -0.00776781	     -0.00567118	    -19.66530422	      5.74288633	      7.77428275	     31.20521764	    106.25177396	     -0.02421165	      0.01746742	     -0.00479025	     61.61912676	     89.63005027	      8.43001192	      9.91217706	      5.35179874
      2.76271190	     -5.32195517	     -1.60829230	      1.54006040	      0.22838962	      0.95406424	     -0.05927631	      3.09100323	     -3.36304106	    -12.30863833	      1.78138213	      0.03109098	      3.35278964	     -5.27942956	     -7.49999987	      3.63855313	     -3.77338240	     -7.46634947	      1.96518427	      0.03429894	      9.40581772	      0.20154781	     -7.49999987	      3.11824677	      1.77383738	     -2.30602574	     -0.02246848	     -0.01122285	     -0.00597541	    -20.93059685	      5.21278891	      6.34662789	     31.71502982	    113.69468329	     -0.02814321	      0.01889249	     -0.00437910	     62.78312848	     89.62063814	     12.07211884	      7.76823218	      2.33641213
      2.77966100	     -5.24350343	     -1.61981245	      1.54712170	      0.22821368	      0.95032508	     -0.05942312	      3.03449358	     -3.33071934	    -12.33643808	      1.76085843	      0.03073278	      3.33493546	     -5.22806568	     -7.49999987	      3.61953344	     -3.79837935	     -7.53373380	      2.00979344	      0.03507751	      9.34252025	      0.28773025	     -7.49999987	      2.97665766	      1.74103967	     -2.22130764	     -0.02306143	     -0.01143276	     -0.00599475	    -20.65437999	      5.14864714	      6.08875987	     31.59110431	    113.53257587	     -0.02863607	      0.01886594	     -0.00439188	     62.89949673	     89.93348207	     11.86487582	      7.65934063	      2.30123562
      2.79661020	     -5.23533829	     -1.60467790	      1.57150871	      0.22826325	      0.94743864	     -0.05924778	      3.04506888	     -3.33862292	    -12.33432748	      1.77557315	      0.03098960	      3.39435027	     -5.27646493	     -7.49999987	      3.68150426	     -3.79740053	     -7.52547124	      2.08989476	      0.03647554	      9.24907275	      0.28927059	     -7.49999987	      2.99994398	      1.67075853	     -2.44108786	     -0.02289451	     -0.01156136	     -0.00599472	    -20.36271141	      5.14893671	      5.85563179	     31.64326717	    113.60402433	     -0.02933241	      0.01917318	     -0.00437859	     62.83043467	     90.14001110	     12.45688932	      7.56235987	      2.31814417
      2.81355930	     -5.40031831	     -1.64191360	      1.54159256	      0.22730567	      0.94967998	     -0.05945162	      3.60479864	     -3.40108066	    -12.59272118	      2.44965947	      0.04275462	      3.81976780	     -4.83928207	     -7.49999987	      4.25499527	     -3.87521054	     -7.55712752	      2.78609994	      0.04862662	      9.50780832	      0.08597957	     -7.49999987	      3.65501951	      1.89621693	     -2.28315819	     -0.02001089	     -0.00797828	     -0.00569056	    -19.30865260	      5.55201059	      7.49328863	     30.57371112	    104.16578651	     -0.02438608	      0.01756427	     -0.00477712	     62.29150434	     90.48520666	      8.25916752	     10.55229679	      6.37519199
      2.83050850	     -5.02876936	     -1.58231531	      1.58933737	      0.22800391	      0.95050405	     -0.05924659	      2.84297275	     -3.34820362	    -12.37517428	      1.77161780	      0.03092056	      3.33544538	     -5.24515687	     -7.49999987	      3.52890037	     -3.80791773	     -7.61466877	      2.16426018	      0.03777347	      9.23233736	      0.47578850	     -7.49999987	      2.82597592	      1.42259737	     -2.00699227	     -0.02384747	     -0.01167837	     -0.00598241	    -21.17456295	      5.01478111	      6.43013137	     31.49834456	    113.77121116	     -0.02930518	      0.01901604	     -0.00436749	     63.77011209	     90.73926060	     10.82689901	      8.20511934	      2.34655366
